<svg xmlns="http://www.w3.org/2000/svg" width="76" height="78" viewBox="0 0 76 78"><defs><style>.a{opacity:0.2;}.b{fill:#59be92;}</style></defs><g transform="translate(-715 -2237)"><g class="a" transform="translate(540 1641)"><circle class="b" cx="6.5" cy="6.5" r="6.5" transform="translate(175 596)"/><circle class="b" cx="6.5" cy="6.5" r="6.5" transform="translate(175 617)"/><circle class="b" cx="6.5" cy="6.5" r="6.5" transform="translate(217 596)"/><circle class="b" cx="6.5" cy="6.5" r="6.5" transform="translate(217 617)"/><circle class="b" cx="6.5" cy="6.5" r="6.5" transform="translate(196 596)"/><circle class="b" cx="6.5" cy="6.5" r="6.5" transform="translate(196 617)"/><circle class="b" cx="6.5" cy="6.5" r="6.5" transform="translate(238 596)"/><circle class="b" cx="6.5" cy="6.5" r="6.5" transform="translate(238 617)"/></g><g class="a" transform="translate(540 1685)"><circle class="b" cx="6.5" cy="6.5" r="6.5" transform="translate(175 596)"/><circle class="b" cx="6.5" cy="6.5" r="6.5" transform="translate(175 617)"/><circle class="b" cx="6.5" cy="6.5" r="6.5" transform="translate(217 596)"/><circle class="b" cx="6.5" cy="6.5" r="6.5" transform="translate(217 617)"/><circle class="b" cx="6.5" cy="6.5" r="6.5" transform="translate(196 596)"/><circle class="b" cx="6.5" cy="6.5" r="6.5" transform="translate(196 617)"/><circle class="b" cx="6.5" cy="6.5" r="6.5" transform="translate(238 596)"/><circle class="b" cx="6.5" cy="6.5" r="6.5" transform="translate(238 617)"/></g></g></svg>